<svg xmlns="http://www.w3.org/2000/svg" width="34" height="34" viewBox="0 0 34 34" fill="none">
<path opacity="0.5" d="M2.83301 17C2.83301 10.3217 2.83301 6.98263 4.90767 4.90797C6.98233 2.83331 10.3214 2.83331 16.9997 2.83331C23.6779 2.83331 27.017 2.83331 29.0917 4.90797C31.1663 6.98263 31.1663 10.3217 31.1663 17C31.1663 23.6782 31.1663 27.0173 29.0917 29.092C27.017 31.1666 23.6779 31.1666 16.9997 31.1666C10.3214 31.1666 6.98233 31.1666 4.90767 29.092C2.83301 27.0173 2.83301 23.6782 2.83301 17Z" fill="#ACE44F"/>
<path fill-rule="evenodd" clip-rule="evenodd" d="M17.6657 16.3346C17.2508 15.9197 17.2508 15.2469 17.6657 14.832L28.6019 3.89581H23.5967C23.0099 3.89581 22.5342 3.42012 22.5342 2.83331C22.5342 2.24651 23.0099 1.77081 23.5967 1.77081H31.167C31.7538 1.77081 32.2295 2.24651 32.2295 2.83331V10.4036C32.2295 10.9904 31.7538 11.4661 31.167 11.4661C30.5802 11.4661 30.1045 10.9904 30.1045 10.4036V5.39841L19.1683 16.3346C18.7534 16.7495 18.0806 16.7495 17.6657 16.3346Z" fill="#ACE44F"/>
</svg>