<svg xmlns="http://www.w3.org/2000/svg" width="1067" height="282" viewBox="0 0 1067 282" fill="none">
<path d="M60.7002 216.408H0V273C0 277.971 4.02947 282 9.00003 282H1058C1062.97 282 1067 277.971 1067 273V63.7472C1067 58.7766 1062.97 54.7472 1058 54.7472H963.245C961.173 54.7472 959.165 55.4618 957.56 56.7704L951.323 61.8524C945.994 66.1953 937.96 63.2013 936.773 56.4299L928.235 7.731C926.662 -1.2392 914.288 -2.46662 910.983 6.01985L868.327 115.578C866.685 119.795 862.167 122.137 857.775 121.049L844.192 117.682C841.656 117.053 839.518 115.353 838.334 113.024L827.835 92.3621C825.046 86.8732 817.693 85.7425 813.384 90.1399L790.01 113.991C788.317 115.719 786.001 116.692 783.582 116.692H713.955C709.489 116.692 705.698 113.417 705.05 108.999L700.709 79.4196C699.375 70.3271 686.876 68.8453 683.452 77.3738L660.113 135.521C657.676 141.595 649.58 142.757 645.531 137.615C642.229 133.421 635.925 133.268 632.423 137.297L607.067 166.476C605.357 168.443 602.879 169.572 600.273 169.572H562.662C559.046 169.572 555.781 167.408 554.372 164.077L526.694 98.6153C523.742 91.6332 514.008 91.2052 510.455 97.9012L485.78 144.395C484.219 147.336 481.161 149.176 477.83 149.176H408.367C406.767 149.176 405.196 149.602 403.816 150.411L334.445 191.077C331.635 192.725 328.153 192.725 325.342 191.077L281.565 165.415C277.553 163.062 272.408 164.155 269.699 167.936L214.833 244.485C212.123 248.265 206.979 249.358 202.966 247.006L155.323 219.077C152.513 217.429 149.031 217.429 146.22 219.077L111.509 239.425C108.699 241.072 105.217 241.072 102.406 239.425L65.2517 217.644C63.8714 216.835 62.3003 216.408 60.7002 216.408Z" fill="url(#paint0_linear_610_5753)"/>
<defs>
<linearGradient id="paint0_linear_610_5753" x1="533.5" y1="-24" x2="533.5" y2="282" gradientUnits="userSpaceOnUse">
<stop stop-color="#2DBA65" stop-opacity="0.31"/>
<stop offset="1" stop-color="#A7EC61" stop-opacity="0"/>
</linearGradient>
</defs>
</svg>