<svg width="39" height="39" viewBox="0 0 39 39" fill="none" xmlns="http://www.w3.org/2000/svg">
<rect width="39" height="39" rx="19.5" fill="#ACE44F" fill-opacity="0.1"/>
<path d="M18.7254 15.2845C17.7789 15.5433 17.2085 16.2696 17.2085 16.9557C17.2085 17.6418 17.7789 18.368 18.7254 18.6268V15.2845Z" fill="#ACE44F"/>
<path d="M20.2423 20.3408V23.6831C21.1887 23.4243 21.7592 22.6981 21.7592 22.012C21.7592 21.3259 21.1887 20.5996 20.2423 20.3408Z" fill="#ACE44F"/>
<path fill-rule="evenodd" clip-rule="evenodd" d="M29.5964 19.4838C29.5964 25.0689 25.0689 29.5964 19.4838 29.5964C13.8988 29.5964 9.37122 25.0689 9.37122 19.4838C9.37122 13.8988 13.8988 9.37122 19.4838 9.37122C25.0689 9.37122 29.5964 13.8988 29.5964 19.4838ZM19.4838 12.6578C19.9027 12.6578 20.2423 12.9974 20.2423 13.4163V13.7366C21.8911 14.0318 23.276 15.2705 23.276 16.9557C23.276 17.3745 22.9365 17.7141 22.5176 17.7141C22.0987 17.7141 21.7592 17.3745 21.7592 16.9557C21.7592 16.2696 21.1887 15.5433 20.2423 15.2845V18.7929C21.8911 19.0881 23.276 20.3268 23.276 22.012C23.276 23.6971 21.8911 24.9359 20.2423 25.2311V25.5514C20.2423 25.9703 19.9027 26.3098 19.4838 26.3098C19.0649 26.3098 18.7254 25.9703 18.7254 25.5514V25.2311C17.0766 24.9359 15.6916 23.6971 15.6916 22.012C15.6916 21.5931 16.0312 21.2535 16.45 21.2535C16.8689 21.2535 17.2085 21.5931 17.2085 22.012C17.2085 22.6981 17.7789 23.4243 18.7254 23.6831V20.1748C17.0766 19.8796 15.6916 18.6408 15.6916 16.9557C15.6916 15.2705 17.0766 14.0318 18.7254 13.7366V13.4163C18.7254 12.9974 19.0649 12.6578 19.4838 12.6578Z" fill="#ACE44F"/>
</svg>
