<svg width="34" height="34" viewBox="0 0 34 34" fill="none" xmlns="http://www.w3.org/2000/svg">
<path opacity="0.5" d="M31.1666 17C31.1666 9.17601 24.824 2.83337 16.9999 2.83337C9.17588 2.83337 2.83325 9.17601 2.83325 17C2.83325 24.8241 9.17588 31.1667 16.9999 31.1667C24.824 31.1667 31.1666 24.8241 31.1666 17Z" fill="#ACE44F"/>
<path d="M16.2139 14.5145C15.8192 14.9487 15.8512 15.6207 16.2854 16.0154C16.7196 16.4101 17.3915 16.3781 17.7863 15.9439L19.4793 14.0816V22.6667C19.4793 23.2535 19.955 23.7292 20.5418 23.7292C21.1286 23.7292 21.6043 23.2535 21.6043 22.6667V14.0816L23.2972 15.9439C23.692 16.3781 24.3639 16.4101 24.7981 16.0154C25.2323 15.6207 25.2643 14.9487 24.8696 14.5145L21.3279 10.6187C21.1266 10.3972 20.8411 10.2709 20.5418 10.2709C20.2424 10.2709 19.9569 10.3972 19.7556 10.6187L16.2139 14.5145Z" fill="#ACE44F"/>
<path d="M10.7029 18.0562C10.3082 17.622 9.63624 17.59 9.20204 17.9847C8.76784 18.3794 8.73584 19.0514 9.13057 19.4856L12.6722 23.3814C12.8736 23.6029 13.1591 23.7292 13.4584 23.7292C13.7578 23.7292 14.0432 23.6029 14.2446 23.3814L17.7863 19.4856C18.181 19.0514 18.149 18.3794 17.7148 17.9847C17.2806 17.59 16.6086 17.622 16.2139 18.0562L14.5209 19.9184V11.3334C14.5209 10.7466 14.0452 10.2709 13.4584 10.2709C12.8716 10.2709 12.3959 10.7466 12.3959 11.3334L12.3959 19.9184L10.7029 18.0562Z" fill="#ACE44F"/>
</svg>
