<svg width="50" height="50" viewBox="0 0 50 50" fill="none" xmlns="http://www.w3.org/2000/svg">
<rect width="50" height="50" rx="25" fill="#2CBA65"/>
<path d="M35 19C35 20.6569 33.6569 22 32 22C30.3431 22 29 20.6569 29 19C29 17.3431 30.3431 16 32 16C33.6569 16 35 17.3431 35 19Z" fill="white"/>
<path fill-rule="evenodd" clip-rule="evenodd" d="M27 18H23C19.2288 18 17.3431 18 16.1716 19.1716C15 20.3431 15 22.2288 15 26C15 29.7712 15 31.6569 16.1716 32.8284C17.3431 34 19.2288 34 23 34H27C30.7712 34 32.6569 34 33.8284 32.8284C35 31.6569 35 29.7712 35 26C35 24.5466 35 23.3733 34.9329 22.413C34.1453 23.0905 33.1205 23.5 32 23.5C31.5213 23.5 31.0601 23.4253 30.6274 23.2868L29.2837 24.4066C28.3973 25.1452 27.6789 25.7439 27.0448 26.1517C26.3843 26.5765 25.7411 26.8449 25 26.8449C24.2589 26.8449 23.6157 26.5765 22.9552 26.1517C22.3211 25.7439 21.6027 25.1452 20.7164 24.4066L18.5199 22.5762C18.2017 22.311 18.1587 21.8381 18.4238 21.5199C18.689 21.2017 19.1619 21.1587 19.4801 21.4238L21.639 23.2229C22.572 24.0004 23.2197 24.5384 23.7666 24.8901C24.2959 25.2306 24.6549 25.3449 25 25.3449C25.3451 25.3449 25.7041 25.2306 26.2334 24.8901C26.7803 24.5384 27.428 24.0004 28.361 23.2229L29.2004 22.5234C28.1643 21.6989 27.5 20.427 27.5 19C27.5 18.6564 27.5385 18.3218 27.6115 18.0002C27.4133 18 27.2096 18 27 18Z" fill="white"/>
</svg>
