<svg width="39" height="39" viewBox="0 0 39 39" fill="none" xmlns="http://www.w3.org/2000/svg">
<rect width="39" height="39" rx="19.5" fill="#ACE44F" fill-opacity="0.1"/>
<path opacity="0.5" d="M30 20C30 25.5228 25.5228 30 20 30C14.4772 30 10 25.5228 10 20C10 14.4772 14.4772 10 20 10C25.5228 10 30 14.4772 30 20Z" fill="#ACE44F"/>
<path d="M24.807 27.0112C23.4398 27.9504 21.7841 28.5 20 28.5C18.2159 28.5 16.5602 27.9503 15.193 27.0111C14.5891 26.5963 14.3311 25.8062 14.6822 25.1632C15.41 23.8302 16.9097 23 20 23C23.0903 23 24.59 23.8303 25.3178 25.1632C25.6689 25.8062 25.4108 26.5964 24.807 27.0112Z" fill="#ACE44F"/>
<path d="M20 20C21.6569 20 23 18.6569 23 17C23 15.3431 21.6569 14 20 14C18.3432 14 17 15.3431 17 17C17 18.6569 18.3432 20 20 20Z" fill="#ACE44F"/>
</svg>
