<svg xmlns="http://www.w3.org/2000/svg" width="150" height="30" viewBox="0 0 150 30" fill="none">
  <g clip-path="url(#clip0_610_6202)">
    <path d="M9.17478 12.6056L15.0014 6.78146L20.8304 12.6104L24.2189 9.21965L15.0014 0L5.784 9.21728L9.17478 12.6056Z" fill="white"/>
    <path d="M-0.0012207 15.0005L3.38832 11.611L6.77786 15.0005L3.38832 18.39L-0.0012207 15.0005Z" fill="white"/>
    <path d="M9.17476 17.3945L15.0014 23.221L20.8304 17.3921L24.2212 20.7781L24.2188 20.7804L15.0014 30.0001L5.78397 20.7852L5.77924 20.7804L9.17476 17.3945Z" fill="white"/>
    <path d="M23.2195 15.0015L26.609 11.612L29.9986 15.0015L26.609 18.391L23.2195 15.0015Z" fill="white"/>
    <path d="M18.4396 14.9988L15.0014 11.5583L12.459 14.1008L12.1651 14.3922L11.5633 14.9941L11.5585 14.9988L11.5633 15.0059L15.0014 18.4417L18.4396 15.0012L18.442 14.9988H18.4396Z" fill="white"/>
    <path d="M35.2869 7.26953H42.6608C44.4901 7.26953 45.8739 7.74343 46.8122 8.69122C47.1657 9.04133 47.4444 9.45961 47.6314 9.92069C47.8183 10.3818 47.9097 10.876 47.8998 11.3735V11.4185C47.9062 11.826 47.8494 12.232 47.7316 12.6222C47.6266 12.9581 47.4742 13.2772 47.279 13.57C47.097 13.8461 46.8768 14.095 46.625 14.3093C46.379 14.521 46.1095 14.7039 45.8217 14.8542C46.6514 15.1432 47.3975 15.6314 47.9946 16.2759C48.5222 16.8762 48.786 17.7055 48.786 18.7639V18.8089C48.801 19.4699 48.6572 20.1248 48.3666 20.7187C48.0851 21.2659 47.6723 21.7348 47.1653 22.0835C46.592 22.4678 45.9537 22.7448 45.2815 22.901C44.4828 23.0904 43.664 23.1819 42.8433 23.1735H35.2869V7.26953ZM41.9215 13.7003C42.5595 13.7311 43.1944 13.5939 43.7626 13.3022C43.9842 13.1728 44.1652 12.9839 44.2849 12.7569C44.4047 12.5299 44.4585 12.274 44.4403 12.018V11.973C44.452 11.7371 44.4041 11.5021 44.301 11.2896C44.1979 11.0771 44.0429 10.8941 43.8503 10.7574C43.457 10.4778 42.8891 10.338 42.1466 10.338H38.6966V13.7003H41.9215ZM42.8527 20.1097C43.4883 20.1454 44.121 19.9999 44.6773 19.6904C44.894 19.5511 45.0694 19.3564 45.1852 19.1263C45.3011 18.8963 45.3531 18.6394 45.336 18.3824V18.3374C45.3445 18.0931 45.293 17.8505 45.1861 17.6307C45.0791 17.4109 44.9198 17.2208 44.7223 17.0768C44.3147 16.7609 43.656 16.6029 42.7461 16.6029H38.6966V20.1097H42.8527Z" fill="white"/>
    <path d="M53.1794 7.26953H56.6792V23.1782H53.1794V7.26953Z" fill="white"/>
    <path d="M61.9744 7.26953H65.2016L72.6609 17.0602V7.26953H76.1157V23.1782H73.1372L65.4339 13.0653V23.1782H61.9744V7.26953Z" fill="white"/>
    <path d="M86.7128 7.15576H89.9353L96.7524 23.1782H93.0986L91.6438 19.6098H84.9167L83.4618 23.1782H79.8933L86.7128 7.15576ZM90.395 16.52L88.2767 11.3592L86.1678 16.52H90.395Z" fill="white"/>
    <path d="M100.536 7.26953H103.763L111.218 17.0602V7.26953H114.672V23.1782H111.694L103.991 13.0653V23.1782H100.536V7.26953Z" fill="white"/>
    <path d="M127.269 23.4578C126.154 23.4673 125.048 23.2513 124.018 22.8227C123.049 22.4224 122.169 21.8321 121.431 21.0866C120.694 20.3411 120.112 19.4555 119.722 18.4819C119.311 17.4635 119.102 16.3744 119.109 15.2759V15.2309C119.09 13.0658 119.923 10.9801 121.428 9.42333C122.169 8.66291 123.055 8.06004 124.035 7.65096C125.1 7.20967 126.244 6.98959 127.397 7.00409C128.079 6.999 128.76 7.0601 129.43 7.18654C130.004 7.29498 130.564 7.46253 131.103 7.6865C131.592 7.89232 132.057 8.15137 132.489 8.45895C132.911 8.75894 133.307 9.09339 133.674 9.45887L131.449 12.0274C130.88 11.5029 130.243 11.0588 129.553 10.7076C128.876 10.3838 128.133 10.2216 127.383 10.2337C126.758 10.227 126.14 10.3533 125.568 10.6041C124.996 10.855 124.484 11.2246 124.066 11.6886C123.651 12.1513 123.326 12.6873 123.108 13.269C122.88 13.8838 122.765 14.5349 122.769 15.1906V15.2357C122.767 15.8905 122.882 16.5405 123.108 17.1549C123.324 17.7388 123.645 18.2778 124.056 18.7449C124.471 19.2145 124.982 19.5896 125.554 19.8447C126.126 20.0998 126.747 20.229 127.373 20.2234C128.171 20.2486 128.963 20.0769 129.679 19.7235C130.361 19.3521 130.991 18.8932 131.553 18.3586L133.781 20.6097C133.387 21.0365 132.962 21.4326 132.508 21.7944C132.062 22.1469 131.578 22.4481 131.065 22.6924C130.518 22.9498 129.942 23.14 129.35 23.2587C128.665 23.396 127.968 23.4627 127.269 23.4578Z" fill="white"/>
    <path d="M137.911 7.26953H149.884V10.383H141.354V13.6103H148.865V16.7238H141.365V20.0647H150.002V23.1782H137.918L137.911 7.26953Z" fill="white"/>
  </g>
  <defs>
    <clipPath id="clip0_610_6202">
      <rect width="150" height="30" fill="white"/>
    </clipPath>
  </defs>
</svg>