<svg xmlns="http://www.w3.org/2000/svg" width="87" height="30" viewBox="0 0 87 30" fill="none">
  <path d="M60 20V0H64V20H60Z" fill="white" fill-opacity="0.51"/>
  <path d="M13.6631 26H5V6H13.3147C17.3557 6 19.7103 8.19096 19.7103 11.6181C19.7103 13.8366 18.1981 15.2702 17.1514 15.7475C18.4008 16.3091 20 17.5728 20 20.2427C20 23.9774 17.3557 26 13.6631 26ZM12.9948 9.48379H9.04096V14.0905H12.9948C14.7098 14.0905 15.6693 13.1634 15.6693 11.7864C15.6693 10.4109 14.7098 9.48379 12.9948 9.48379ZM13.2561 17.6019H9.04096V22.5177H13.2561C15.0882 22.5177 15.959 21.3948 15.959 20.0453C15.959 18.6974 15.0865 17.6019 13.2561 17.6019Z" fill="white"/>
  <path d="M31.9517 17.7977V26H28.0498V17.7977L22 6H26.2683L30.0285 14.0615L33.7317 6H38L31.9517 17.7977Z" fill="white"/>
  <path d="M49.663 26H41V6H49.3147C53.3556 6 55.7102 8.19096 55.7102 11.6181C55.7102 13.8366 54.198 15.2702 53.1513 15.7475C54.4007 16.3091 56 17.5728 56 20.2427C56 23.9774 53.3556 26 49.663 26ZM48.9948 9.48379H45.0409V14.0905H48.9948C50.7097 14.0905 51.6692 13.1634 51.6692 11.7864C51.6692 10.4109 50.7097 9.48379 48.9948 9.48379ZM49.2561 17.6019H45.0409V22.5177H49.2561C51.0881 22.5177 51.959 21.3948 51.959 20.0453C51.959 18.6974 51.0881 17.6019 49.2561 17.6019Z" fill="white"/>
  <path d="M76.9041 9.48353V26H73.0959V9.48353H68V6H82V9.48353H76.9041Z" fill="white"/>
</svg>