<svg width="32" height="32" viewBox="0 0 32 32" fill="none" xmlns="http://www.w3.org/2000/svg">
<path fill-rule="evenodd" clip-rule="evenodd" d="M23.7297 9.72385C23.5543 9.54608 23.3159 9.44123 23.064 9.44123H22.6727C21.4762 9.44583 18.8449 9.32732 16.5689 7.53163C16.2315 7.26729 15.7592 7.26729 15.4219 7.53163C13.1458 9.32732 10.5145 9.44583 9.32259 9.44123H8.93574C8.68385 9.44123 8.44096 9.54608 8.26553 9.72385C8.09011 9.90616 7.99565 10.1522 8.00015 10.4029C8.04963 13.6205 8.18457 15.9403 8.45446 17.7132C8.65686 19.0395 8.93124 20.0649 9.33607 20.9126C9.63296 21.5461 10.0063 22.0794 10.4381 22.5169C11.0858 23.1823 11.828 23.6427 12.6511 24.1258C12.8009 24.2128 12.9539 24.3008 13.1105 24.3908C13.815 24.7957 14.5927 25.2428 15.4759 25.8394C15.7907 26.0536 16.2 26.0536 16.5149 25.8394C17.3847 25.2498 18.1523 24.8081 18.8504 24.4064L18.8525 24.4052C19.1789 24.2173 19.4901 24.0382 19.7894 23.8569C20.4912 23.433 21.1343 22.9864 21.6966 22.3711C22.1149 21.9062 22.4703 21.3593 22.7582 20.6985C23.1854 19.7094 23.4688 18.4881 23.6578 16.8427C23.8512 15.1975 23.9546 13.1192 23.9996 10.4029C24.0041 10.1522 23.9051 9.90616 23.7297 9.72385ZM21.692 17.4261C21.5076 18.6384 21.2647 19.4815 20.9724 20.0923C20.752 20.5526 20.5136 20.8853 20.2212 21.1907C19.7849 21.6373 19.2001 22.0201 18.4085 22.4804C18.2532 22.5713 18.0906 22.665 17.9206 22.7628L17.9188 22.7639C17.3554 23.0884 16.7122 23.4589 15.9975 23.9207C15.2687 23.4507 14.6155 23.0761 14.045 22.7489L14.0428 22.7477C13.7234 22.5645 13.43 22.3962 13.1638 22.2344C12.5206 21.8424 12.0483 21.5006 11.675 21.0858C11.3961 20.7759 11.1622 20.425 10.9507 19.9373C10.6314 19.2036 10.375 18.1599 10.1951 16.6194C10.0377 15.2659 9.93872 13.5431 9.88925 11.3281C11.2882 11.2825 13.6991 11.009 15.9975 9.44583C18.296 11.0136 20.707 11.2871 22.1104 11.3281C22.0474 14.0079 21.9124 15.9768 21.692 17.4261Z" fill="#3375BB"/>
</svg>
