<svg width="31" height="32" viewBox="0 0 31 32" fill="none" xmlns="http://www.w3.org/2000/svg">
<path d="M7.18799 12.6668C7.18799 12.2088 7.54486 11.8375 7.98508 11.8375H12.2362C12.6765 11.8375 13.0333 12.2088 13.0333 12.6668C13.0333 13.1248 12.6765 13.4961 12.2362 13.4961H7.98508C7.54486 13.4961 7.18799 13.1248 7.18799 12.6668Z" fill="#3763FF"/>
<path fill-rule="evenodd" clip-rule="evenodd" d="M25.1577 13.11C25.0891 13.1057 25.0143 13.1057 24.9368 13.1057L24.9175 13.1057H21.879C19.3745 13.1057 17.2314 15.0817 17.2314 17.6586C17.2314 20.2354 19.3745 22.2114 21.879 22.2114H24.9175L24.9368 22.2114C25.0143 22.2114 25.089 22.2115 25.1577 22.2071C26.175 22.1427 27.0747 21.3448 27.1503 20.2303C27.1553 20.1572 27.1553 20.0784 27.1552 20.0054L27.1552 19.9856V15.3316L27.1552 15.3117C27.1553 15.2387 27.1553 15.1599 27.1503 15.0869C27.0747 13.9723 26.175 13.1744 25.1577 13.11ZM21.6096 18.8726C22.2544 18.8726 22.7771 18.3291 22.7771 17.6585C22.7771 16.988 22.2544 16.4445 21.6096 16.4445C20.9648 16.4445 20.4421 16.988 20.4421 17.6585C20.4421 18.3291 20.9648 18.8726 21.6096 18.8726Z" fill="#3763FF"/>
<path opacity="0.5" d="M25.1039 13.1075C25.1039 11.7637 25.0566 10.3222 24.2244 9.28883C24.1441 9.18907 24.0586 9.09221 23.9675 8.9982C23.1423 8.14641 22.096 7.76839 20.8032 7.58897C19.5471 7.41464 17.942 7.41466 15.9156 7.41467H13.5859C11.5595 7.41466 9.95448 7.41464 8.69834 7.58897C7.40557 7.76839 6.35922 8.14641 5.53404 8.9982C4.70887 9.85 4.34266 10.9301 4.16885 12.2646C3.99997 13.5612 3.99998 15.218 4 17.3098V17.4382C3.99998 19.53 3.99997 21.1868 4.16885 22.4835C4.34266 23.8179 4.70887 24.8981 5.53405 25.7498C6.35922 26.6016 7.40557 26.9797 8.69834 27.1591C9.95447 27.3334 11.5595 27.3334 13.5859 27.3334H15.9156C17.942 27.3334 19.5471 27.3334 20.8032 27.1591C22.096 26.9797 23.1423 26.6016 23.9675 25.7498C24.193 25.5171 24.3845 25.2668 24.5473 24.9984C25.044 24.1795 25.1039 23.1759 25.1039 22.2097C25.0508 22.2115 24.9947 22.2114 24.9372 22.2114L21.8793 22.2114C19.3747 22.2114 17.2317 20.2354 17.2317 17.6586C17.2317 15.0817 19.3747 13.1057 21.8793 13.1057L24.9371 13.1057C24.9947 13.1057 25.0508 13.1057 25.1039 13.1075Z" fill="#3763FF"/>
<path d="M12.9329 4.65119L10.6158 6.26792L8.70459 7.58806C9.95979 7.41461 11.5629 7.41462 13.5858 7.41464H15.9156C17.9419 7.41462 19.547 7.4146 20.8031 7.58894C21.0558 7.624 21.2991 7.66666 21.5331 7.71895L19.4369 6.27642L17.1076 4.65119C15.8632 3.78294 14.1773 3.78294 12.9329 4.65119Z" fill="#3763FF"/>
</svg>
