<svg xmlns="http://www.w3.org/2000/svg" width="34" height="34" viewBox="0 0 34 34" fill="none">
  <path d="M6.92969 13.6203C6.92969 13.0502 7.38819 12.5881 7.95378 12.5881H13.4156C13.9812 12.5881 14.4397 13.0502 14.4397 13.6203C14.4397 14.1903 13.9812 14.6524 13.4156 14.6524H7.95378C7.38819 14.6524 6.92969 14.1903 6.92969 13.6203Z" fill="#3763FF"/>
  <path fill-rule="evenodd" clip-rule="evenodd" d="M30.0168 14.1721C29.9286 14.1667 29.8327 14.1667 29.7331 14.1668L29.7082 14.1668H25.8044C22.5866 14.1668 19.8333 16.6262 19.8333 19.8334C19.8333 23.0407 22.5866 25.5001 25.8044 25.5001H29.7082L29.7331 25.5001C29.8326 25.5001 29.9286 25.5002 30.0168 25.4947C31.3239 25.4146 32.4798 24.4214 32.577 23.0343C32.5834 22.9433 32.5833 22.8452 32.5832 22.7544L32.5832 22.7297V16.9371L32.5832 16.9125C32.5833 16.8216 32.5834 16.7235 32.577 16.6326C32.4798 15.2454 31.3239 14.2522 30.0168 14.1721ZM25.4582 21.3445C26.2867 21.3445 26.9582 20.668 26.9582 19.8334C26.9582 18.9988 26.2867 18.3223 25.4582 18.3223C24.6298 18.3223 23.9582 18.9988 23.9582 19.8334C23.9582 20.668 24.6298 21.3445 25.4582 21.3445Z" fill="#3763FF"/>
  <path opacity="0.5" d="M29.9474 14.1687C29.9474 12.4962 29.8866 10.7021 28.8174 9.4159C28.7142 9.29175 28.6043 9.17119 28.4873 9.05418C27.4271 7.994 26.0828 7.5235 24.4219 7.30019C22.808 7.08321 20.7459 7.08323 18.1424 7.08325H15.1492C12.5457 7.08323 10.4835 7.08321 8.86964 7.30019C7.20871 7.5235 5.86436 7.994 4.80418 9.05418C3.744 10.1144 3.2735 11.4587 3.05019 13.1196C2.83321 14.7335 2.83323 16.7957 2.83325 19.3991V19.559C2.83323 22.1625 2.83321 24.2247 3.05019 25.8385C3.2735 27.4995 3.744 28.8438 4.80418 29.904C5.86436 30.9642 7.20871 31.4347 8.86964 31.658C10.4835 31.875 12.5456 31.8749 15.1491 31.8749H18.1423C20.7458 31.8749 22.808 31.875 24.4219 31.658C26.0828 31.4347 27.4271 30.9642 28.4873 29.904C28.7771 29.6143 29.0231 29.3028 29.2323 28.9687C29.8704 27.9495 29.9474 26.7003 29.9474 25.4978C29.8791 25.5 29.8071 25.4999 29.7331 25.4999L25.8044 25.4999C22.5866 25.4999 19.8333 23.0405 19.8333 19.8333C19.8333 16.626 22.5866 14.1666 25.8044 14.1666L29.7331 14.1666C29.8071 14.1666 29.8791 14.1665 29.9474 14.1687Z" fill="#3763FF"/>
  <path d="M14.3105 3.64375L11.3334 5.656L8.87793 7.2991C10.4906 7.08321 12.5502 7.08323 15.1493 7.08325H18.1425C20.746 7.08323 22.8081 7.08321 24.422 7.30019C24.7467 7.34384 25.0592 7.39693 25.3599 7.46202L22.6667 5.66659L19.674 3.64375C18.0752 2.56309 15.9093 2.56309 14.3105 3.64375Z" fill="#3763FF"/>
</svg>