<svg width="28" height="28" viewBox="0 0 28 28" fill="none" xmlns="http://www.w3.org/2000/svg">
<path d="M20.4836 6.84049C16.7185 3.07077 10.6104 3.06702 6.84063 6.83207C3.07091 10.5972 3.06711 16.7054 6.83225 20.4752C10.5973 24.2449 16.7055 24.2486 20.4753 20.4835C24.245 16.7185 24.2488 10.6102 20.4836 6.84049ZM15.0049 19.7793C15.0049 19.9282 14.8843 20.0487 14.7355 20.0487H12.5804C12.4316 20.0487 12.311 19.9282 12.311 19.7793V11.779C12.311 11.6301 12.4316 11.5096 12.5804 11.5096H14.7355C14.8843 11.5096 15.0049 11.6301 15.0049 11.779V19.7793ZM13.658 10.3916C12.7965 10.3916 12.0956 9.69076 12.0956 8.82923C12.0956 7.9678 12.7964 7.26684 13.658 7.26684C14.5195 7.26684 15.2204 7.96775 15.2204 8.82923C15.2204 9.69076 14.5194 10.3916 13.658 10.3916Z" fill="#3763FF"/>
<path opacity="0.5" d="M0 13.6667C0 7.22414 0 4.00287 2.00144 2.00144C4.00287 0 7.22414 0 13.6667 0C20.1092 0 23.3305 0 25.3319 2.00144C27.3333 4.00287 27.3333 7.22414 27.3333 13.6667C27.3333 20.1092 27.3333 23.3305 25.3319 25.3319C23.3305 27.3333 20.1092 27.3333 13.6667 27.3333C7.22414 27.3333 4.00287 27.3333 2.00144 25.3319C0 23.3305 0 20.1092 0 13.6667Z" fill="#3763FF"/>
</svg>
