<svg width="34" height="34" viewBox="0 0 34 34" fill="none" xmlns="http://www.w3.org/2000/svg">
<path opacity="0.5" d="M2.83301 16.9999C2.83301 10.3217 2.83301 6.98257 4.90767 4.90791C6.98233 2.83325 10.3214 2.83325 16.9997 2.83325C23.6779 2.83325 27.017 2.83325 29.0917 4.90791C31.1663 6.98257 31.1663 10.3217 31.1663 16.9999C31.1663 23.6781 31.1663 27.0173 29.0917 29.0919C27.017 31.1666 23.6779 31.1666 16.9997 31.1666C10.3214 31.1666 6.98233 31.1666 4.90767 29.0919C2.83301 27.0173 2.83301 23.6781 2.83301 16.9999Z" fill="#3763FF"/>
<path fill-rule="evenodd" clip-rule="evenodd" d="M25.5 13.8494C25.5 16.8038 23.0952 19.1988 20.1286 19.1988C19.5873 19.1988 18.3548 19.0744 17.7552 18.5768L17.0057 19.3233C16.565 19.7621 16.684 19.8914 16.8801 20.1042C16.9619 20.193 17.0571 20.2964 17.1306 20.4429C17.1306 20.4429 17.7552 21.3137 17.1306 22.1846C16.7559 22.6822 15.7066 23.3789 14.5074 22.1846L14.2576 22.4334C14.2576 22.4334 15.0071 23.3042 14.3825 24.175C14.0077 24.6727 13.0084 25.1703 12.134 24.2994L11.2596 25.1703C10.66 25.7674 9.9272 25.4191 9.63574 25.1703L8.88624 24.4239C8.18672 23.7272 8.59478 22.9725 8.88624 22.6822L15.3818 16.2131C15.3818 16.2131 14.7573 15.2179 14.7573 13.8494C14.7573 10.895 17.1621 8.5 20.1286 8.5C23.0952 8.5 25.5 10.895 25.5 13.8494ZM20.1285 15.7154C21.1634 15.7154 22.0023 14.8799 22.0023 13.8493C22.0023 12.8187 21.1634 11.9832 20.1285 11.9832C19.0937 11.9832 18.2548 12.8187 18.2548 13.8493C18.2548 14.8799 19.0937 15.7154 20.1285 15.7154Z" fill="#3763FF"/>
</svg>
