<svg xmlns="http://www.w3.org/2000/svg" width="156" height="153" viewBox="0 0 153 140" fill="none">
<path d="M146 68C146 105.279 115.779 135.5 78.5 135.5C41.2208 135.5 11 105.279 11 68C11 30.7208 41.2208 0.5 78.5 0.5C115.779 0.5 146 30.7208 146 68ZM25.1143 68C25.1143 97.4841 49.0159 121.386 78.5 121.386C107.984 121.386 131.886 97.4841 131.886 68C131.886 38.5159 107.984 14.6143 78.5 14.6143C49.0159 14.6143 25.1143 38.5159 25.1143 68Z" fill="white" fill-opacity="0.05"/>
<g filter="url(#filter0_d_610_6802)">
<path d="M138.943 68C142.841 68 146.038 71.1679 145.631 75.044C144.902 81.9982 143.094 88.8113 140.262 95.2353C136.477 103.817 130.947 111.515 124.022 117.84C117.097 124.165 108.93 128.977 100.042 131.97C91.1541 134.963 81.7398 136.071 72.3997 135.224C63.0596 134.376 53.9986 131.592 45.7945 127.047C37.5904 122.503 30.4232 116.299 24.7501 108.831C19.0769 101.363 15.0223 92.7949 12.8447 83.6727C11.2146 76.8438 10.6631 69.8165 11.1972 62.8446C11.4948 58.9587 15.2105 56.4181 19.0442 57.1196C22.8778 57.8212 25.3673 61.5024 25.1772 65.3952C24.9315 70.4244 25.398 75.4751 26.5726 80.3957C28.2949 87.6106 31.5017 94.3873 35.9887 100.294C40.4756 106.2 46.1442 111.107 52.6329 114.701C59.1216 118.295 66.288 120.498 73.6752 121.168C81.0624 121.838 88.5083 120.962 95.5379 118.595C102.568 116.227 109.027 112.421 114.504 107.419C119.981 102.416 124.355 96.3276 127.348 89.5407C129.389 84.9119 130.757 80.0276 131.421 75.0363C131.934 71.173 135.046 68 138.943 68Z" fill="#3763FF"/>
</g>
<defs>
<filter id="filter0_d_610_6802" x="0.6875" y="53.1361" width="155.292" height="99.1217" filterUnits="userSpaceOnUse" color-interpolation-filters="sRGB">
<feFlood flood-opacity="0" result="BackgroundImageFix"/>
<feColorMatrix in="SourceAlpha" type="matrix" values="0 0 0 0 0 0 0 0 0 0 0 0 0 0 0 0 0 0 127 0" result="hardAlpha"/>
<feGaussianBlur stdDeviation="5.15625"/>
<feComposite in2="hardAlpha" operator="out"/>
<feColorMatrix type="matrix" values="0 0 0 0 0.0375 0 0 0 0 0.24925 0 0 0 0 1 0 0 0 .35 0"/>
<feBlend mode="normal" in2="BackgroundImageFix" result="effect1_dropShadow_610_6802"/>
<feBlend mode="normal" in="SourceGraphic" in2="effect1_dropShadow_610_6802" result="shape"/>
</filter>
</defs>
</svg>