<svg width="34" height="34" viewBox="0 0 34 34" fill="none" xmlns="http://www.w3.org/2000/svg">
<path opacity="0.5" d="M16.9999 31.1667C24.824 31.1667 31.1666 24.8241 31.1666 17C31.1666 9.17601 24.824 2.83337 16.9999 2.83337C9.17588 2.83337 2.83325 9.17601 2.83325 17C2.83325 24.8241 9.17588 31.1667 16.9999 31.1667Z" fill="#ACE44F"/>
<path d="M14.875 11.6875C14.2882 11.6875 13.8125 12.1632 13.8125 12.75C13.8125 13.3368 14.2882 13.8125 14.875 13.8125H18.6849L11.9987 20.4987C11.5838 20.9136 11.5838 21.5864 11.9987 22.0013C12.4136 22.4162 13.0864 22.4162 13.5013 22.0013L20.1875 15.3151V19.125C20.1875 19.7118 20.6632 20.1875 21.25 20.1875C21.8368 20.1875 22.3125 19.7118 22.3125 19.125V12.75C22.3125 12.1632 21.8368 11.6875 21.25 11.6875H14.875Z" fill="#ACE44F"/>
</svg>
