<svg width="24" height="24" viewBox="0 0 24 24" fill="none" xmlns="http://www.w3.org/2000/svg">
<path d="M12 1.43994C8.81438 1.43994 6.24 4.01432 6.24 7.19994V9.59994H4.32C3.50438 9.59994 2.88 10.2243 2.88 11.0399V22.5599C2.88 23.3756 3.50438 23.9999 4.32 23.9999H19.68C20.4956 23.9999 21.12 23.3756 21.12 22.5599V11.0399C21.12 10.2243 20.4956 9.59994 19.68 9.59994H17.76V7.19994C17.76 4.01432 15.1856 1.43994 12 1.43994ZM12 2.39994C14.6719 2.39994 16.8 4.52807 16.8 7.19994V9.59994H7.2V7.19994C7.2 4.52807 9.32813 2.39994 12 2.39994ZM12 14.3999C12.8156 14.3999 13.44 15.0243 13.44 15.8399C13.44 16.2712 13.2488 16.6499 12.96 16.8899V18.2399C12.96 18.7687 12.5288 19.1999 12 19.1999C11.4713 19.1999 11.04 18.7687 11.04 18.2399V16.8899C10.7513 16.6499 10.56 16.2712 10.56 15.8399C10.56 15.0243 11.1844 14.3999 12 14.3999Z" fill="#A6A6A6" fill-opacity="0.5"/>
</svg>
