<svg width="32" height="14" viewBox="0 0 32 14" fill="none" xmlns="http://www.w3.org/2000/svg">
<path fill-rule="evenodd" clip-rule="evenodd" d="M21.966 2.6051C18.487 -0.868367 12.8464 -0.868367 9.36738 2.6051L8.90781 3.06394C8.73386 3.23761 8.73386 3.51919 8.90781 3.69286L10.3401 5.12288C10.4271 5.20972 10.5681 5.20972 10.6551 5.12288L11.2721 4.50682C13.6992 2.08364 17.6342 2.08364 20.0612 4.50682L20.6374 5.08209C20.7244 5.16892 20.8654 5.16892 20.9524 5.08209L22.3847 3.65207C22.5586 3.47839 22.5586 3.19681 22.3847 3.02314L21.966 2.6051ZM26.2029 6.83527L24.9281 5.56254C24.7542 5.38887 24.4721 5.38887 24.2982 5.56254L20.2187 9.63557C20.1752 9.67899 20.1047 9.67899 20.0612 9.63557L15.9816 5.56246L15.9816 5.56245C15.8076 5.38878 15.5256 5.38879 15.3516 5.56247L11.2722 9.63557C11.2287 9.67899 11.1582 9.67899 11.1148 9.63558L7.03515 5.56247C6.8612 5.38879 6.57917 5.38879 6.40522 5.56247L5.13046 6.83519C4.95651 7.00886 4.95651 7.29044 5.13046 7.46412L10.8786 13.2031C11.0525 13.3768 11.3346 13.3767 11.5085 13.2031L15.588 9.13002C15.6315 9.08661 15.702 9.08661 15.7454 9.13002L19.825 13.2031C19.9989 13.3768 20.281 13.3767 20.4549 13.2031L26.2029 7.46419C26.3768 7.29052 26.3768 7.00894 26.2029 6.83527Z" fill="#3B99FC"/>
</svg>
